<?xml version="1.0" encoding="UTF-8" standalone="no"?>
<!-- Created with Inkscape (http://www.inkscape.org/) -->

<svg
   xmlns:dc="http://purl.org/dc/elements/1.1/"
   xmlns:cc="http://creativecommons.org/ns#"
   xmlns:rdf="http://www.w3.org/1999/02/22-rdf-syntax-ns#"
   xmlns:svg="http://www.w3.org/2000/svg"
   xmlns="http://www.w3.org/2000/svg"
   xmlns:sodipodi="http://sodipodi.sourceforge.net/DTD/sodipodi-0.dtd"
   xmlns:inkscape="http://www.inkscape.org/namespaces/inkscape"
   width="744.09448819"
   height="1052.3622047"
   id="svg2"
   version="1.1"
   inkscape:version="0.48.4 r9939"
   sodipodi:docname="afm_scheme.svg">
  <sodipodi:namedview
     id="base"
     pagecolor="#ffffff"
     bordercolor="#666666"
     borderopacity="1.0"
     inkscape:pageopacity="0.0"
     inkscape:pageshadow="2"
     inkscape:zoom="2.8"
     inkscape:cx="267.53039"
     inkscape:cy="804.87809"
     inkscape:document-units="px"
     inkscape:current-layer="layer1"
     showgrid="false"
     inkscape:window-width="1920"
     inkscape:window-height="1080"
     inkscape:window-x="0"
     inkscape:window-y="0"
     inkscape:window-maximized="0" />
  <defs
     id="defs4">
    <marker
       inkscape:stockid="Arrow1Mend"
       orient="auto"
       refY="0.0"
       refX="0.0"
       id="Arrow1Mend"
       style="overflow:visible;">
      <path
         id="path3879"
         d="M 0.0,0.0 L 5.0,-5.0 L -12.5,0.0 L 5.0,5.0 L 0.0,0.0 z "
         style="fill-rule:evenodd;stroke:#000000;stroke-width:1.0pt;"
         transform="scale(0.4) rotate(180) translate(10,0)" />
    </marker>
    <marker
       inkscape:stockid="Arrow1Mstart"
       orient="auto"
       refY="0.0"
       refX="0.0"
       id="Arrow1Mstart"
       style="overflow:visible">
      <path
         id="path3876"
         d="M 0.0,0.0 L 5.0,-5.0 L -12.5,0.0 L 5.0,5.0 L 0.0,0.0 z "
         style="fill-rule:evenodd;stroke:#000000;stroke-width:1.0pt"
         transform="scale(0.4) translate(10,0)" />
    </marker>
    <marker
       inkscape:stockid="Arrow1Lend"
       orient="auto"
       refY="0.0"
       refX="0.0"
       id="Arrow1Lend"
       style="overflow:visible;">
      <path
         id="path3873"
         d="M 0.0,0.0 L 5.0,-5.0 L -12.5,0.0 L 5.0,5.0 L 0.0,0.0 z "
         style="fill-rule:evenodd;stroke:#000000;stroke-width:1.0pt;"
         transform="scale(0.8) rotate(180) translate(12.5,0)" />
    </marker>
    <inkscape:perspective
       sodipodi:type="inkscape:persp3d"
       inkscape:vp_x="0 : 526.18109 : 1"
       inkscape:vp_y="0 : 1000 : 0"
       inkscape:vp_z="744.09448 : 526.18109 : 1"
       inkscape:persp3d-origin="372.04724 : 350.78739 : 1"
       id="perspective2987" />
    <marker
       inkscape:stockid="Arrow1Mendr"
       orient="auto"
       refY="0.0"
       refX="0.0"
       id="Arrow1Mendr"
       style="overflow:visible;">
      <path
         id="path4987"
         d="M 0.0,0.0 L 5.0,-5.0 L -12.5,0.0 L 5.0,5.0 L 0.0,0.0 z "
         style="stroke:#ffffff;stroke-width:1.0pt;fill:#ffffff;fill-rule:evenodd"
         transform="scale(0.4) rotate(180) translate(10,0)" />
    </marker>
    <marker
       inkscape:stockid="Arrow1Mstart5"
       orient="auto"
       refY="0.0"
       refX="0.0"
       id="Arrow1Mstart5"
       style="overflow:visible">
      <path
         id="path4990"
         d="M 0.0,0.0 L 5.0,-5.0 L -12.5,0.0 L 5.0,5.0 L 0.0,0.0 z "
         style="stroke:#ffffff;stroke-width:1.0pt;fill:#ffffff;fill-rule:evenodd"
         transform="scale(0.4) translate(10,0)" />
    </marker>
    <marker
       inkscape:stockid="Arrow1MendF"
       orient="auto"
       refY="0.0"
       refX="0.0"
       id="Arrow1MendF"
       style="overflow:visible;">
      <path
         id="path4993"
         d="M 0.0,0.0 L 5.0,-5.0 L -12.5,0.0 L 5.0,5.0 L 0.0,0.0 z "
         style="stroke:#ffffff;stroke-width:1.0pt;fill:#ffffff;fill-rule:evenodd"
         transform="scale(0.4) rotate(180) translate(10,0)" />
    </marker>
  </defs>
  <metadata
     id="metadata7">
    <rdf:RDF>
      <cc:Work
         rdf:about="">
        <dc:format>image/svg+xml</dc:format>
        <dc:type
           rdf:resource="http://purl.org/dc/dcmitype/StillImage" />
        <dc:title></dc:title>
      </cc:Work>
    </rdf:RDF>
  </metadata>
  <g
     inkscape:label="Layer 1"
     inkscape:groupmode="layer"
     id="layer1">
    <rect
       style="fill:#333333;fill-opacity:1;stroke:#333333;stroke-width:0.7743488"
       id="rect2985"
       width="143.79707"
       height="41.47963"
       x="247.74432"
       y="248.67793" />
    <g
       id="g3779"
       style="fill:#008080;stroke:#008080">
      <rect
         y="243.86218"
         x="286.25"
         height="3.9285715"
         width="64.64286"
         id="rect3003"
         style="fill:#008080;fill-opacity:1;stroke:#008080" />
      <path
         inkscape:connector-curvature="0"
         id="path3773"
         d="m 291.42857,243.61218 c 0.11905,-0.23809 0.11905,-0.83333 0.35715,-0.71428 0.23809,0.11904 -0.54538,0.90251 -0.35715,0.71428 0.24543,-0.24542 0.3189,-0.62183 0.53572,-0.89286 0.0744,-0.093 0.27296,0.0842 0.35714,0 0.0421,-0.0421 -0.0421,-0.13648 0,-0.17857 0.0421,-0.0421 0.13648,0.0421 0.17857,0 0.0421,-0.0421 -0.0421,-0.13648 0,-0.17857 0.0421,-0.0421 0.13648,0.0421 0.17857,0 0.0421,-0.0421 -0.0421,-0.13648 0,-0.17857 0.0842,-0.0842 0.27297,0.0842 0.35715,0 0.0421,-0.0421 -0.0421,-0.13648 0,-0.17857 0.0842,-0.0842 0.27296,0.0842 0.35714,0 0.0421,-0.0421 -0.0421,-0.13648 0,-0.17857 0.0893,-0.0893 0.44643,0.0893 0.53571,0 0.0421,-0.0421 -0.0421,-0.13649 0,-0.17857 0.0842,-0.0842 0.27297,0.0842 0.35715,0 0.0421,-0.0421 -0.0421,-0.13649 0,-0.17858 0.0842,-0.0842 0.27296,0.0842 0.35714,0 0.0421,-0.0421 -0.0421,-0.13648 0,-0.17857 0.0842,-0.0842 0.27296,0.0842 0.35714,0 0.0421,-0.0421 -0.0421,-0.13648 0,-0.17857 0.006,-0.006 0.49241,0 0.53572,0 0.29762,0 0.59523,0 0.89285,0 0.0595,0 0.13649,-0.0421 0.17857,0 0.0421,0.0421 -0.0421,0.13648 0,0.17857 0.0842,0.0842 0.27297,-0.0842 0.35715,0 0.0421,0.0421 -0.0421,0.13648 0,0.17857 0.0893,0.0893 0.44643,-0.0893 0.53571,0 0.0421,0.0421 -0.0421,0.13649 0,0.17858 0.0421,0.0421 0.12533,-0.0266 0.17857,0 0.0753,0.0376 0.10328,0.14092 0.17857,0.17857 0.0532,0.0266 0.13649,-0.0421 0.17858,0 0.0421,0.0421 -0.0421,0.13648 0,0.17857 0.0421,0.0421 0.12533,-0.0266 0.17857,0 0.0753,0.0376 0.10328,0.14092 0.17857,0.17857 0.10648,0.0532 0.27296,-0.0842 0.35714,0 0.0421,0.0421 -0.0421,0.13648 0,0.17857 0.0842,0.0842 0.27297,-0.0842 0.35714,0 0.0421,0.0421 -0.0421,0.13648 0,0.17857 0.0893,0.0893 0.44643,-0.0893 0.53572,0 0.0421,0.0421 -0.0421,0.13648 0,0.17857 0.0893,0.0893 0.44643,-0.0893 0.53571,0 0.0421,0.0421 -0.0421,0.13649 0,0.17858 0.0421,0.0421 0.13649,-0.0421 0.17857,0 0.0421,0.0421 -0.0421,0.13648 0,0.17857 0.0842,0.0842 0.27297,-0.0842 0.35715,0 0.0421,0.0421 -0.0421,0.13648 0,0.17857 0.0893,0.0893 0.44643,-0.0893 0.53571,0 0.0421,0.0421 -0.0421,0.13648 0,0.17857 0.0893,0.0893 0.44643,-0.0893 0.53572,0 0.0421,0.0421 -0.0421,0.13648 0,0.17857 0.0421,0.0421 0.11904,0 0.17857,0 0.0656,0 0.7071,0.007 0.71428,0 0.0421,-0.0421 -0.0421,-0.13648 0,-0.17857 0.0893,-0.0893 0.44643,0.0893 0.53572,0 0.0421,-0.0421 -0.0421,-0.13648 0,-0.17857 0.0842,-0.0842 0.25066,0.0532 0.35714,0 0.0753,-0.0377 0.10328,-0.14093 0.17857,-0.17857 0.10648,-0.0532 0.27297,0.0842 0.35714,0 0.0421,-0.0421 -0.0421,-0.13649 0,-0.17857 0.0365,-0.0365 0.46492,0.0354 0.53572,0 0.0753,-0.0376 0.10328,-0.14093 0.17857,-0.17858 0.14286,-0.0714 0.39286,0.0714 0.53571,0 0.0753,-0.0376 0.10328,-0.14092 0.17858,-0.17857 0.10648,-0.0532 0.27296,0.0842 0.35714,0 0.0421,-0.0421 -0.0421,-0.13648 0,-0.17857 0.0489,-0.0489 0.61741,0.0484 0.71428,0 0.0753,-0.0376 0.10328,-0.14092 0.17858,-0.17857 0.0532,-0.0266 0.13648,0.0421 0.17857,0 0.0421,-0.0421 -0.0421,-0.13648 0,-0.17857 0.0893,-0.0893 0.44643,0.0893 0.53571,0 0.0421,-0.0421 -0.0421,-0.13648 0,-0.17857 0.0421,-0.0421 0.11905,0 0.17857,0 0.0595,0 0.11905,0 0.17857,0 0.4762,0 -0.0595,0.0595 0.17858,-0.17857 0.043,-0.043 0.67131,0.043 0.71428,0 0.0421,-0.0421 -0.0421,-0.13649 0,-0.17858 0.0421,-0.0421 0.11905,0 0.17857,0 0.0842,0 0.88477,-0.008 0.89286,0 0.0421,0.0421 -0.0421,0.13649 0,0.17858 0.0421,0.0421 0.12533,-0.0266 0.17857,0 0.74317,0.37158 -0.1909,-0.0123 0.17857,0.35714 0.0421,0.0421 0.12534,-0.0266 0.17857,0 0.74318,0.37158 -0.19089,-0.0123 0.17858,0.35714 0.0421,0.0421 0.13648,-0.0421 0.17857,0 0.0421,0.0421 -0.0421,0.13648 0,0.17857 0.0421,0.0421 0.13648,-0.0421 0.17857,0 0.0421,0.0421 -0.0266,0.12533 0,0.17857 0.0376,0.0753 0.14092,0.10328 0.17857,0.17858 0.0266,0.0532 -0.0421,0.13648 0,0.17857 0.0421,0.0421 0.13648,-0.0421 0.17857,0 0.0421,0.0421 -0.0421,0.13648 0,0.17857 0.0421,0.0421 0.13648,-0.0421 0.17857,0 0.0421,0.0421 -0.0421,0.13648 0,0.17857 0.0421,0.0421 0.12534,-0.0266 0.17857,0 0.0753,0.0377 0.10328,0.14092 0.17858,0.17857 0.0532,0.0266 0.12533,-0.0266 0.17857,0 0.0753,0.0377 0.10328,0.14093 0.17857,0.17857 0.0532,0.0266 0.13648,-0.0421 0.17857,0 0.0421,0.0421 -0.0421,0.13648 0,0.17857 0.0842,0.0842 0.27296,-0.0842 0.35714,0 0.0421,0.0421 -0.0421,0.13649 0,0.17858 0.0365,0.0365 0.46492,-0.0354 0.53572,0 0.0753,0.0376 0.10328,0.14092 0.17857,0.17857 0.0532,0.0266 0.11905,0 0.17857,0 0.35714,0 0.71429,0 1.07143,0 0.0595,0 0.13648,0.0421 0.17857,0 0.0421,-0.0421 -0.0421,-0.13649 0,-0.17857 0.006,-0.006 0.49241,0 0.53571,0 0.41879,0 -0.0842,0.0421 0.35715,-0.17858 0.0532,-0.0266 0.11905,0 0.17857,0 0.12657,0 1.02526,0.0231 1.07143,0 0.0753,-0.0376 0.10328,-0.14092 0.17857,-0.17857 0.14286,-0.0714 0.39286,0.0714 0.53571,0 0.0753,-0.0376 0.10328,-0.14092 0.17857,-0.17857 0.11224,-0.0561 0.60205,0.0561 0.71429,0 0.0753,-0.0376 0.10328,-0.14092 0.17857,-0.17857 0.0646,-0.0323 0.76866,0 0.89286,0 0.59524,0 1.19048,0 1.78571,0 0.0934,0 0.66734,0.0235 0.71429,0 0.0753,-0.0376 0.10328,-0.14093 0.17857,-0.17857 0.0969,-0.0484 0.66543,0.0489 0.71429,0 0.0421,-0.0421 -0.0421,-0.13648 0,-0.17857 0.0421,-0.0421 0.13648,-0.0421 0.17857,0 0.0421,0.0421 -0.0421,0.13648 0,0.17857 0.0421,0.0421 0.13648,-0.0421 0.17857,0 0.0421,0.0421 -0.0421,0.13648 0,0.17857 0.0842,0.0842 0.27296,-0.0842 0.35714,0 0.0421,0.0421 -0.0421,0.13648 0,0.17857 0.0842,0.0842 0.27297,-0.0842 0.35714,0 0.0421,0.0421 -0.0421,0.13648 0,0.17857 0.0842,0.0842 0.25067,-0.0532 0.35715,0 0.0753,0.0376 0.10328,0.14093 0.17857,0.17857 0.0469,0.0235 0.62091,0 0.71428,0 0.35715,0 0.71429,0 1.07143,0 0.0804,0 0.48137,0.0272 0.53572,0 0.0753,-0.0376 0.10328,-0.14092 0.17857,-0.17857 0.0708,-0.0354 0.49921,0.0365 0.53571,0 0.0421,-0.0421 -0.0421,-0.13648 0,-0.17857 0.0179,-0.0179 0.51786,-0.0179 0.53572,0 0.0421,0.0421 -0.0421,0.13648 0,0.17857 0.0421,0.0421 0.11905,0 0.17857,0 0,0.0595 -0.0421,0.13648 0,0.17857 0.0842,0.0842 0.27296,-0.0842 0.35714,0 0.0421,0.0421 -0.0421,0.13649 0,0.17858 0.0842,0.0842 0.25067,-0.0532 0.35714,0 0.0753,0.0376 0.10328,0.14092 0.17858,0.17857 0.14285,0.0714 0.39285,-0.0714 0.53571,0 0.19196,0.096 0.34376,0.26116 0.53571,0.35714 0.0543,0.0272 0.4553,0 0.53572,0 0.47619,0 0.95238,0 1.42857,0 0.11905,0 0.2381,0 0.35714,0 0.0595,0 0.12905,0.033 0.17857,0 0.14009,-0.0934 0.21706,-0.26375 0.35715,-0.35714 0.0738,-0.0492 0.58527,0.043 0.71428,0 0.69544,-0.23181 0.0167,-0.17857 0.71429,-0.17857 0.0433,0 0.52997,0.006 0.53571,0 0.0421,-0.0421 -0.0421,-0.13649 0,-0.17858 0.0842,-0.0842 0.25067,0.0532 0.35715,0 0.0753,-0.0376 0.10328,-0.14092 0.17857,-0.17857 0.14285,-0.0714 0.39285,0.0714 0.53571,0 0.0753,-0.0376 0.10328,-0.14092 0.17857,-0.17857 0.0532,-0.0266 0.12534,0.0266 0.17857,0 0.0753,-0.0376 0.10328,-0.14092 0.17858,-0.17857 0.14285,-0.0714 0.39285,0.0714 0.53571,0 0.0753,-0.0376 0.10328,-0.14093 0.17857,-0.17857 0.10648,-0.0532 0.27297,0.0842 0.35715,0 0.0421,-0.0421 -0.0421,-0.13648 0,-0.17857 0.0421,-0.0421 0.11904,0 0.17857,0 0.0595,0 0.11904,0 0.17857,0 0.47619,0 0.95238,0 1.42857,0 0.0656,0 0.7071,0.007 0.71429,0 0.0421,-0.0421 -0.0421,-0.13649 0,-0.17857 0.0893,-0.0893 0.44642,0.0893 0.53571,0 0.0421,-0.0421 -0.0421,-0.13649 0,-0.17858 0.006,-0.006 0.49241,0 0.53571,0 0.0595,0 0.13649,-0.0421 0.17858,0 0.0421,0.0421 -0.0421,0.13649 0,0.17858 0.0842,0.0842 0.27296,-0.0842 0.35714,0 0.0421,0.0421 -0.0421,0.13648 0,0.17857 0.0421,0.0421 0.13648,-0.0421 0.17857,0 0.0421,0.0421 -0.0421,0.13648 0,0.17857 0.0421,0.0421 0.11905,0 0.17857,0 0.12657,0 1.02526,0.0231 1.07143,0 0.74317,-0.37159 -0.1909,0.0123 0.17857,-0.35714 0.0842,-0.0842 0.27296,0.0842 0.35714,0 0.0421,-0.0421 -0.0421,-0.13649 0,-0.17858 0.0421,-0.0421 0.13649,0.0421 0.17858,0 0.0421,-0.0421 -0.0421,-0.13648 0,-0.17857 0.0842,-0.0842 0.27296,0.0842 0.35714,0 0.0421,-0.0421 -0.0421,-0.13648 0,-0.17857 0.0421,-0.0421 0.13648,0.0421 0.17857,0 0.0421,-0.0421 -0.0421,-0.13648 0,-0.17857 0.0421,-0.0421 0.11905,0 0.17857,0 0.0595,0 0.11905,0 0.17857,0 0.0433,0 0.52997,-0.006 0.53572,0 0.0421,0.0421 -0.0421,0.13648 0,0.17857 0.0842,0.0842 0.27296,-0.0842 0.35714,0 0.0842,0.0842 -0.0842,0.27296 0,0.35714 0.0421,0.0421 0.13648,-0.0421 0.17857,0 0.0421,0.0421 -0.0421,0.13649 0,0.17858 0.0421,0.0421 0.13648,-0.0421 0.17857,0 0.0421,0.0421 -0.0421,0.13648 0,0.17857 0.0421,0.0421 0.13648,-0.0421 0.17857,0 0.0421,0.0421 -0.0421,0.13648 0,0.17857 0.0421,0.0421 0.13649,-0.0421 0.17858,0 0.0421,0.0421 -0.0421,0.13648 0,0.17857 0.0842,0.0842 0.25066,-0.0532 0.35714,0 0.0753,0.0377 0.10328,0.14092 0.17857,0.17857 0.0532,0.0266 0.13648,-0.0421 0.17857,0 0.0421,0.0421 -0.0421,0.13648 0,0.17857 0.0421,0.0421 0.17857,-0.0595 0.17857,0 0,0.0595 -0.11905,0 -0.17857,0"
         style="fill:#008080;stroke:#008080;stroke-width:1px;stroke-linecap:butt;stroke-linejoin:miter;stroke-opacity:1" />
      <path
         style="fill:#008080;stroke:#008080;stroke-width:1px;stroke-linecap:butt;stroke-linejoin:miter;stroke-opacity:1"
         d="m 286.60714,243.61218 c 0.11905,-0.23809 0.11905,-0.83333 0.35715,-0.71428 0.23809,0.11904 -0.54538,0.90251 -0.35715,0.71428 0.24543,-0.24542 0.3189,-0.62183 0.53572,-0.89286 0.0744,-0.093 0.27296,0.0842 0.35714,0 0.0421,-0.0421 -0.0421,-0.13648 0,-0.17857 0.0421,-0.0421 0.13648,0.0421 0.17857,0 0.0421,-0.0421 -0.0421,-0.13648 0,-0.17857 0.0421,-0.0421 0.13648,0.0421 0.17857,0 0.0421,-0.0421 -0.0421,-0.13648 0,-0.17857 0.0842,-0.0842 0.27297,0.0842 0.35715,0 0.0421,-0.0421 -0.0421,-0.13648 0,-0.17857 0.0842,-0.0842 0.27296,0.0842 0.35714,0 0.0421,-0.0421 -0.0421,-0.13648 0,-0.17857 0.0893,-0.0893 0.44643,0.0893 0.53571,0 0.0421,-0.0421 -0.0421,-0.13649 0,-0.17857 0.0842,-0.0842 0.27297,0.0842 0.35715,0 0.0421,-0.0421 -0.0421,-0.13649 0,-0.17858 0.0842,-0.0842 0.27296,0.0842 0.35714,0 0.0421,-0.0421 -0.0421,-0.13648 0,-0.17857 0.0842,-0.0842 0.27296,0.0842 0.35714,0 0.0421,-0.0421 -0.0421,-0.13648 0,-0.17857 0.006,-0.006 0.49241,0 0.53572,0 0.29762,0 0.59523,0 0.89285,0 0.0595,0 0.13649,-0.0421 0.17857,0 0.0421,0.0421 -0.0421,0.13648 0,0.17857 0.0842,0.0842 0.27297,-0.0842 0.35715,0 0.0421,0.0421 -0.0421,0.13648 0,0.17857 0.0893,0.0893 0.44643,-0.0893 0.53571,0 0.0421,0.0421 -0.0421,0.13649 0,0.17858 0.0421,0.0421 0.12533,-0.0266 0.17857,0 0.0753,0.0376 0.10328,0.14092 0.17857,0.17857 0.0532,0.0266 0.13649,-0.0421 0.17858,0 0.0421,0.0421 -0.0421,0.13648 0,0.17857 0.0421,0.0421 0.12533,-0.0266 0.17857,0 0.0753,0.0376 0.10328,0.14092 0.17857,0.17857 0.10648,0.0532 0.27296,-0.0842 0.35714,0 0.0421,0.0421 -0.0421,0.13648 0,0.17857 0.0842,0.0842 0.27297,-0.0842 0.35714,0 0.0421,0.0421 -0.0421,0.13648 0,0.17857 0.0893,0.0893 0.44643,-0.0893 0.53572,0 0.0421,0.0421 -0.0421,0.13648 0,0.17857 0.0893,0.0893 0.44643,-0.0893 0.53571,0 0.0421,0.0421 -0.0421,0.13649 0,0.17858 0.0421,0.0421 0.13649,-0.0421 0.17857,0 0.0421,0.0421 -0.0421,0.13648 0,0.17857 0.0842,0.0842 0.27297,-0.0842 0.35715,0 0.0421,0.0421 -0.0421,0.13648 0,0.17857 0.0893,0.0893 0.44643,-0.0893 0.53571,0 0.0421,0.0421 -0.0421,0.13648 0,0.17857 0.0893,0.0893 0.44643,-0.0893 0.53572,0 0.0421,0.0421 -0.0421,0.13648 0,0.17857 0.0421,0.0421 0.11904,0 0.17857,0 0.0656,0 0.7071,0.007 0.71428,0 0.0421,-0.0421 -0.0421,-0.13648 0,-0.17857 0.0893,-0.0893 0.44643,0.0893 0.53572,0 0.0421,-0.0421 -0.0421,-0.13648 0,-0.17857 0.0842,-0.0842 0.25066,0.0532 0.35714,0 0.0753,-0.0377 0.10328,-0.14093 0.17857,-0.17857 0.10648,-0.0532 0.27297,0.0842 0.35714,0 0.0421,-0.0421 -0.0421,-0.13649 0,-0.17857 0.0365,-0.0365 0.46492,0.0354 0.53572,0 0.0753,-0.0376 0.10328,-0.14093 0.17857,-0.17858 0.14286,-0.0714 0.39286,0.0714 0.53571,0 0.0753,-0.0376 0.10328,-0.14092 0.17858,-0.17857 0.10648,-0.0532 0.27296,0.0842 0.35714,0 0.0421,-0.0421 -0.0421,-0.13648 0,-0.17857 0.0489,-0.0489 0.61741,0.0484 0.71428,0 0.0753,-0.0376 0.10328,-0.14092 0.17858,-0.17857 0.0532,-0.0266 0.13648,0.0421 0.17857,0 0.0421,-0.0421 -0.0421,-0.13648 0,-0.17857 0.0893,-0.0893 0.44643,0.0893 0.53571,0 0.0421,-0.0421 -0.0421,-0.13648 0,-0.17857 0.0421,-0.0421 0.11905,0 0.17857,0 0.0595,0 0.11905,0 0.17857,0 0.4762,0 -0.0595,0.0595 0.17858,-0.17857 0.043,-0.043 0.67131,0.043 0.71428,0 0.0421,-0.0421 -0.0421,-0.13649 0,-0.17858 0.0421,-0.0421 0.11905,0 0.17857,0 0.0842,0 0.88477,-0.008 0.89286,0 0.0421,0.0421 -0.0421,0.13649 0,0.17858 0.0421,0.0421 0.12533,-0.0266 0.17857,0 0.74317,0.37158 -0.1909,-0.0123 0.17857,0.35714 0.0421,0.0421 0.12534,-0.0266 0.17857,0 0.74318,0.37158 -0.19089,-0.0123 0.17858,0.35714 0.0421,0.0421 0.13648,-0.0421 0.17857,0 0.0421,0.0421 -0.0421,0.13648 0,0.17857 0.0421,0.0421 0.13648,-0.0421 0.17857,0 0.0421,0.0421 -0.0266,0.12533 0,0.17857 0.0376,0.0753 0.14092,0.10328 0.17857,0.17858 0.0266,0.0532 -0.0421,0.13648 0,0.17857 0.0421,0.0421 0.13648,-0.0421 0.17857,0 0.0421,0.0421 -0.0421,0.13648 0,0.17857 0.0421,0.0421 0.13648,-0.0421 0.17857,0 0.0421,0.0421 -0.0421,0.13648 0,0.17857 0.0421,0.0421 0.12534,-0.0266 0.17857,0 0.0753,0.0377 0.10328,0.14092 0.17858,0.17857 0.0532,0.0266 0.12533,-0.0266 0.17857,0 0.0753,0.0377 0.10328,0.14093 0.17857,0.17857 0.0532,0.0266 0.13648,-0.0421 0.17857,0 0.0421,0.0421 -0.0421,0.13648 0,0.17857 0.0842,0.0842 0.27296,-0.0842 0.35714,0 0.0421,0.0421 -0.0421,0.13649 0,0.17858 0.0365,0.0365 0.46492,-0.0354 0.53572,0 0.0753,0.0376 0.10328,0.14092 0.17857,0.17857 0.0532,0.0266 0.11905,0 0.17857,0 0.35714,0 0.71429,0 1.07143,0 0.0595,0 0.13648,0.0421 0.17857,0 0.0421,-0.0421 -0.0421,-0.13649 0,-0.17857 0.006,-0.006 0.49241,0 0.53571,0 0.41879,0 -0.0842,0.0421 0.35715,-0.17858 0.0532,-0.0266 0.11905,0 0.17857,0 0.12657,0 1.02526,0.0231 1.07143,0 0.0753,-0.0376 0.10328,-0.14092 0.17857,-0.17857 0.14286,-0.0714 0.39286,0.0714 0.53571,0 0.0753,-0.0376 0.10328,-0.14092 0.17857,-0.17857 0.11224,-0.0561 0.60205,0.0561 0.71429,0 0.0753,-0.0376 0.10328,-0.14092 0.17857,-0.17857 0.0646,-0.0323 0.76866,0 0.89286,0 0.59524,0 1.19048,0 1.78571,0 0.0934,0 0.66734,0.0235 0.71429,0 0.0753,-0.0376 0.10328,-0.14093 0.17857,-0.17857 0.0969,-0.0484 0.66543,0.0489 0.71429,0 0.0421,-0.0421 -0.0421,-0.13648 0,-0.17857 0.0421,-0.0421 0.13648,-0.0421 0.17857,0 0.0421,0.0421 -0.0421,0.13648 0,0.17857 0.0421,0.0421 0.13648,-0.0421 0.17857,0 0.0421,0.0421 -0.0421,0.13648 0,0.17857 0.0842,0.0842 0.27296,-0.0842 0.35714,0 0.0421,0.0421 -0.0421,0.13648 0,0.17857 0.0842,0.0842 0.27297,-0.0842 0.35714,0 0.0421,0.0421 -0.0421,0.13648 0,0.17857 0.0842,0.0842 0.25067,-0.0532 0.35715,0 0.0753,0.0376 0.10328,0.14093 0.17857,0.17857 0.0469,0.0235 0.62091,0 0.71428,0 0.35715,0 0.71429,0 1.07143,0 0.0804,0 0.48137,0.0272 0.53572,0 0.0753,-0.0376 0.10328,-0.14092 0.17857,-0.17857 0.0708,-0.0354 0.49921,0.0365 0.53571,0 0.0421,-0.0421 -0.0421,-0.13648 0,-0.17857 0.0179,-0.0179 0.51786,-0.0179 0.53572,0 0.0421,0.0421 -0.0421,0.13648 0,0.17857 0.0421,0.0421 0.11905,0 0.17857,0 0,0.0595 -0.0421,0.13648 0,0.17857 0.0842,0.0842 0.27296,-0.0842 0.35714,0 0.0421,0.0421 -0.0421,0.13649 0,0.17858 0.0842,0.0842 0.25067,-0.0532 0.35714,0 0.0753,0.0376 0.10328,0.14092 0.17858,0.17857 0.14285,0.0714 0.39285,-0.0714 0.53571,0 0.19196,0.096 0.34376,0.26116 0.53571,0.35714 0.0543,0.0272 0.4553,0 0.53572,0 0.47619,0 0.95238,0 1.42857,0 0.11905,0 0.2381,0 0.35714,0 0.0595,0 0.12905,0.033 0.17857,0 0.14009,-0.0934 0.21706,-0.26375 0.35715,-0.35714 0.0738,-0.0492 0.58527,0.043 0.71428,0 0.69544,-0.23181 0.0167,-0.17857 0.71429,-0.17857 0.0433,0 0.52997,0.006 0.53571,0 0.0421,-0.0421 -0.0421,-0.13649 0,-0.17858 0.0842,-0.0842 0.25067,0.0532 0.35715,0 0.0753,-0.0376 0.10328,-0.14092 0.17857,-0.17857 0.14285,-0.0714 0.39285,0.0714 0.53571,0 0.0753,-0.0376 0.10328,-0.14092 0.17857,-0.17857 0.0532,-0.0266 0.12534,0.0266 0.17857,0 0.0753,-0.0376 0.10328,-0.14092 0.17858,-0.17857 0.14285,-0.0714 0.39285,0.0714 0.53571,0 0.0753,-0.0376 0.10328,-0.14093 0.17857,-0.17857 0.10648,-0.0532 0.27297,0.0842 0.35715,0 0.0421,-0.0421 -0.0421,-0.13648 0,-0.17857 0.0421,-0.0421 0.11904,0 0.17857,0 0.0595,0 0.11904,0 0.17857,0 0.47619,0 0.95238,0 1.42857,0 0.0656,0 0.7071,0.007 0.71429,0 0.0421,-0.0421 -0.0421,-0.13649 0,-0.17857 0.0893,-0.0893 0.44642,0.0893 0.53571,0 0.0421,-0.0421 -0.0421,-0.13649 0,-0.17858 0.006,-0.006 0.49241,0 0.53571,0 0.0595,0 0.13649,-0.0421 0.17858,0 0.0421,0.0421 -0.0421,0.13649 0,0.17858 0.0842,0.0842 0.27296,-0.0842 0.35714,0 0.0421,0.0421 -0.0421,0.13648 0,0.17857 0.0421,0.0421 0.13648,-0.0421 0.17857,0 0.0421,0.0421 -0.0421,0.13648 0,0.17857 0.0421,0.0421 0.11905,0 0.17857,0 0.12657,0 1.02526,0.0231 1.07143,0 0.74317,-0.37159 -0.1909,0.0123 0.17857,-0.35714 0.0842,-0.0842 0.27296,0.0842 0.35714,0 0.0421,-0.0421 -0.0421,-0.13649 0,-0.17858 0.0421,-0.0421 0.13649,0.0421 0.17858,0 0.0421,-0.0421 -0.0421,-0.13648 0,-0.17857 0.0842,-0.0842 0.27296,0.0842 0.35714,0 0.0421,-0.0421 -0.0421,-0.13648 0,-0.17857 0.0421,-0.0421 0.13648,0.0421 0.17857,0 0.0421,-0.0421 -0.0421,-0.13648 0,-0.17857 0.0421,-0.0421 0.11905,0 0.17857,0 0.0595,0 0.11905,0 0.17857,0 0.0433,0 0.52997,-0.006 0.53572,0 0.0421,0.0421 -0.0421,0.13648 0,0.17857 0.0842,0.0842 0.27296,-0.0842 0.35714,0 0.0842,0.0842 -0.0842,0.27296 0,0.35714 0.0421,0.0421 0.13648,-0.0421 0.17857,0 0.0421,0.0421 -0.0421,0.13649 0,0.17858 0.0421,0.0421 0.13648,-0.0421 0.17857,0 0.0421,0.0421 -0.0421,0.13648 0,0.17857 0.0421,0.0421 0.13648,-0.0421 0.17857,0 0.0421,0.0421 -0.0421,0.13648 0,0.17857 0.0421,0.0421 0.13649,-0.0421 0.17858,0 0.0421,0.0421 -0.0421,0.13648 0,0.17857 0.0842,0.0842 0.25066,-0.0532 0.35714,0 0.0753,0.0377 0.10328,0.14092 0.17857,0.17857 0.0532,0.0266 0.13648,-0.0421 0.17857,0 0.0421,0.0421 -0.0421,0.13648 0,0.17857 0.0421,0.0421 0.17857,-0.0595 0.17857,0 0,0.0595 -0.11905,0 -0.17857,0"
         id="path3777"
         inkscape:connector-curvature="0" />
    </g>
    <path
       style="fill:#000000;stroke:#000000;stroke-width:3.0999999;stroke-linecap:butt;stroke-linejoin:miter;stroke-miterlimit:4;stroke-opacity:1;stroke-dasharray:none"
       d="m 400.81814,200.60005 -80.10386,32.47642 3.75001,5.53571 1.09216,-8.11865"
       id="path3784"
       inkscape:connector-curvature="0"
       sodipodi:nodetypes="cccc" />
    <flowRoot
       xml:space="preserve"
       id="flowRoot3786"
       style="fill:black;stroke:none;stroke-opacity:1;stroke-width:1px;stroke-linejoin:miter;stroke-linecap:butt;fill-opacity:1;font-family:Sans;font-style:normal;font-weight:normal;font-size:40px;line-height:125%;letter-spacing:0px;word-spacing:0px"><flowRegion
         id="flowRegion3788"><rect
           id="rect3790"
           width="91.428574"
           height="50.714287"
           x="142.5"
           y="275.21933" /></flowRegion><flowPara
         id="flowPara3792" /></flowRoot>    <flowRoot
       xml:space="preserve"
       id="flowRoot3794"
       style="font-size:12px;font-style:normal;font-weight:normal;line-height:125%;letter-spacing:0px;word-spacing:0px;fill:#000000;fill-opacity:1;stroke:none;font-family:Sans"
       transform="translate(48.722442,-12.67459)"><flowRegion
         id="flowRegion3796"><rect
           id="rect3798"
           width="74.285713"
           height="22.142857"
           x="260.35715"
           y="282.36218" /></flowRegion><flowPara
         id="flowPara3800"
         style="font-size:10px;fill:#ffffff">x-y-z stage</flowPara></flowRoot>    <flowRoot
       xml:space="preserve"
       id="flowRoot3802"
       style="font-size:12px;font-style:normal;font-weight:normal;line-height:125%;letter-spacing:0px;word-spacing:0px;fill:#000000;fill-opacity:1;stroke:none;font-family:Sans"><flowRegion
         id="flowRegion3804"><rect
           id="rect3806"
           width="59.285713"
           height="13.214286"
           x="300"
           y="199.86218"
           style="fill:#000000" /></flowRegion><flowPara
         id="flowPara3808">canti</flowPara></flowRoot>    <flowRoot
       xml:space="preserve"
       id="flowRoot3810"
       style="font-size:12px;font-style:normal;font-weight:normal;line-height:125%;letter-spacing:0px;word-spacing:0px;fill:#000000;fill-opacity:1;stroke:none;font-family:Sans"
       transform="translate(151.25834,63.622192)"><flowRegion
         id="flowRegion3812"><rect
           id="rect3814"
           width="130.35715"
           height="32.5"
           x="211.07143"
           y="152.00504" /></flowRegion><flowPara
         id="flowPara3816"
         style="font-size:8px">cantilever</flowPara></flowRoot>    <flowRoot
       xml:space="preserve"
       id="flowRoot3818"
       style="font-size:12px;font-style:normal;font-weight:normal;line-height:125%;letter-spacing:0px;word-spacing:0px;fill:#000000;fill-opacity:1;stroke:none;font-family:Sans"
       transform="translate(100.34844,28.732053)"><flowRegion
         id="flowRegion3820"><rect
           id="rect3822"
           width="107.14286"
           height="24.285715"
           x="204.28572"
           y="196.64789" /></flowRegion><flowPara
         id="flowPara3824"
         style="font-size:8px">tip</flowPara><flowPara
         id="flowPara3826" /></flowRoot>    <flowRoot
       xml:space="preserve"
       id="flowRoot3828"
       style="font-size:12px;font-style:normal;font-weight:normal;line-height:125%;letter-spacing:0px;word-spacing:0px;fill:#004b4c;fill-opacity:1;stroke:none;font-family:Sans"
       transform="translate(72.857143,18.928571)"><flowRegion
         id="flowRegion3830"><rect
           id="rect3832"
           width="67.85714"
           height="16.785715"
           x="181.42857"
           y="213.43361"
           style="fill:#004b4c;fill-opacity:1" /></flowRegion><flowPara
         id="flowPara3834"
         style="font-size:8px;fill:#004b4c;fill-opacity:1">sample</flowPara></flowRoot>    <path
       sodipodi:type="arc"
       style="fill:#b3b3b3;fill-opacity:1;stroke:#b3b3b3"
       id="path3836"
       sodipodi:cx="348.21429"
       sodipodi:cy="141.82646"
       sodipodi:rx="15.714286"
       sodipodi:ry="26.607143"
       d="m 363.92858,141.82646 a 15.714286,26.607143 0 1 1 -31.42857,0 15.714286,26.607143 0 1 1 31.42857,0 z"
       transform="matrix(-0.55882353,0,0,-0.55882353,440.36048,244.47003)" />
    <path
       transform="matrix(-0.55882353,0,0,-0.55882353,442.458,244.47003)"
       d="m 363.92858,141.82646 a 15.714286,26.607143 0 1 1 -31.42857,0 15.714286,26.607143 0 1 1 31.42857,0 z"
       sodipodi:ry="26.607143"
       sodipodi:rx="15.714286"
       sodipodi:cy="141.82646"
       sodipodi:cx="348.21429"
       id="path3840"
       style="fill:#808080;fill-opacity:1;stroke:#1a1a1a"
       sodipodi:type="arc" />
    <g
       id="g5089"
       transform="translate(-3.2829956,-26.769042)">
      <path
         inkscape:connector-curvature="0"
         id="path3862"
         d="m 269.82541,290.49364 0,14.38615 14.17144,0"
         style="fill:none;stroke:#ffffff;stroke-width:0.42512137px;stroke-linecap:butt;stroke-linejoin:miter;stroke-opacity:1;marker-start:url(#Arrow1Mstart5);marker-end:url(#Arrow1MendF)" />
      <path
         inkscape:connector-curvature="0"
         id="path3864"
         d="m 270.04013,304.77243 -7.19307,7.19308"
         style="fill:none;stroke:#ffffff;stroke-width:0.42512137px;stroke-linecap:butt;stroke-linejoin:miter;stroke-opacity:1;marker-end:url(#Arrow1Mendr)" />
    </g>
    <flowRoot
       transform="translate(49.594958,4.0144824)"
       style="font-size:12px;font-style:normal;font-weight:normal;line-height:125%;letter-spacing:0px;word-spacing:0px;fill:#000000;fill-opacity:1;stroke:none;font-family:Sans"
       id="flowRoot5093"
       xml:space="preserve"><flowRegion
         id="flowRegion5095"><rect
           y="152.00504"
           x="211.07143"
           height="32.5"
           width="130.35715"
           id="rect5097" /></flowRegion><flowPara
         style="font-size:8px"
         id="flowPara5099">photo diode</flowPara></flowRoot>    <path
       style="fill:none;stroke:#aa0000;stroke-width:1px;stroke-linecap:butt;stroke-linejoin:miter;stroke-opacity:1"
       d="m 360.37192,182.62084 -36.99684,46.97209 -75.13009,-64.14468"
       id="path5119"
       inkscape:connector-curvature="0"
       sodipodi:nodetypes="ccc" />
    <g
       id="g5147"
       transform="translate(-4.2931483,5.555839)">
      <rect
         style="fill:#4d4d4d;fill-opacity:1;stroke:#000000;stroke-width:0.46804446"
         id="rect5113"
         width="17.966259"
         height="9.9287224"
         x="89.277382"
         y="389.19376"
         transform="matrix(0.63775711,-0.77023754,0.77023754,0.63775711,0,0)" />
      <rect
         transform="matrix(0.63775711,-0.77023754,0.77023754,0.63775711,0,0)"
         y="383.36389"
         x="99.144234"
         height="21.213203"
         width="38.385796"
         id="rect5101"
         style="fill:#4d4d4d;fill-opacity:1;stroke:#000000;stroke-width:1" />
    </g>
    <path
       style="fill:none;stroke:#000000;stroke-width:1px;stroke-linecap:butt;stroke-linejoin:miter;stroke-opacity:1"
       d="m 248.05562,150.61793 0,29.40808"
       id="path3846"
       inkscape:connector-curvature="0" />
    <path
       style="fill:none;stroke:#000000;stroke-width:0.99999994px;stroke-linecap:butt;stroke-linejoin:miter;stroke-opacity:1"
       d="m 239.17845,165.32197 17.62799,0"
       id="path3848"
       inkscape:connector-curvature="0" />
    <flowRoot
       xml:space="preserve"
       id="flowRoot5127"
       style="font-size:12px;font-style:normal;font-weight:normal;line-height:125%;letter-spacing:0px;word-spacing:0px;fill:#000000;fill-opacity:1;stroke:none;font-family:Sans"
       transform="translate(132.5926,-2.1287355)"><flowRegion
         id="flowRegion5129"><rect
           id="rect5131"
           width="130.35715"
           height="32.5"
           x="211.07143"
           y="152.00504" /></flowRegion><flowPara
         id="flowPara5133"
         style="font-size:8px">laser</flowPara><flowPara
         style="font-size:8px"
         id="flowPara5135" /></flowRoot>    <flowRoot
       transform="translate(51.38067,41.514483)"
       style="font-size:12px;font-style:normal;font-weight:normal;line-height:125%;letter-spacing:0px;word-spacing:0px;fill:#000000;fill-opacity:1;stroke:none;font-family:Sans"
       id="flowRoot5137"
       xml:space="preserve"><flowRegion
         id="flowRegion5139"><rect
           y="152.00504"
           x="211.07143"
           height="32.5"
           width="130.35715"
           id="rect5141" /></flowRegion><flowPara
         style="font-size:8px;fill:#800000"
         id="flowPara5143">beam</flowPara><flowPara
         id="flowPara5145"
         style="font-size:8px" /></flowRoot>  </g>
</svg>
