<?xml version="1.0" encoding="UTF-8" standalone="no"?>
<!-- Created with Inkscape (http://www.inkscape.org/) -->

<svg
   xmlns:dc="http://purl.org/dc/elements/1.1/"
   xmlns:cc="http://creativecommons.org/ns#"
   xmlns:rdf="http://www.w3.org/1999/02/22-rdf-syntax-ns#"
   xmlns:svg="http://www.w3.org/2000/svg"
   xmlns="http://www.w3.org/2000/svg"
   xmlns:sodipodi="http://sodipodi.sourceforge.net/DTD/sodipodi-0.dtd"
   xmlns:inkscape="http://www.inkscape.org/namespaces/inkscape"
   width="744.09448819"
   height="1052.3622047"
   id="svg6427"
   version="1.1"
   inkscape:version="0.48.4 r9939"
   sodipodi:docname="New document 12">
  <defs
     id="defs6429" />
  <sodipodi:namedview
     id="base"
     pagecolor="#ffffff"
     bordercolor="#666666"
     borderopacity="1.0"
     inkscape:pageopacity="0.0"
     inkscape:pageshadow="2"
     inkscape:zoom="3.959798"
     inkscape:cx="438.69813"
     inkscape:cy="502.36668"
     inkscape:document-units="px"
     inkscape:current-layer="layer1"
     showgrid="false"
     inkscape:window-width="1908"
     inkscape:window-height="1053"
     inkscape:window-x="0"
     inkscape:window-y="0"
     inkscape:window-maximized="1" />
  <metadata
     id="metadata6432">
    <rdf:RDF>
      <cc:Work
         rdf:about="">
        <dc:format>image/svg+xml</dc:format>
        <dc:type
           rdf:resource="http://purl.org/dc/dcmitype/StillImage" />
        <dc:title></dc:title>
      </cc:Work>
    </rdf:RDF>
  </metadata>
  <g
     inkscape:label="Layer 1"
     inkscape:groupmode="layer"
     id="layer1">
    <g
       transform="matrix(1.25,0,0,-1.25,164.19973,1472.063)"
       id="g6288">
      <g
         id="g5250"
         transform="matrix(0.34055,0,0,-0.34055,61.51,786.1521)">
        <path
           inkscape:connector-curvature="0"
           id="path5252"
           style="fill:none;stroke:#000000;stroke-width:2;stroke-linecap:butt;stroke-linejoin:miter;stroke-miterlimit:4;stroke-opacity:1;stroke-dasharray:none"
           d="m 4.578,36.988 80,0" />
      </g>
      <g
         id="g5254"
         transform="matrix(0.34055,0,0,-0.34055,61.51,786.1521)">
        <path
           inkscape:connector-curvature="0"
           id="path5256"
           style="fill:#000000;fill-opacity:1;fill-rule:evenodd;stroke:#000000;stroke-width:1;stroke-linecap:butt;stroke-linejoin:miter;stroke-miterlimit:4;stroke-opacity:1;stroke-dasharray:none"
           d="m 8.5,36.988 c 0,2.211 -1.793,4 -4,4 -2.207,0 -4,-1.789 -4,-4 0,-2.207 1.793,-4 4,-4 2.207,0 4,1.793 4,4 z" />
      </g>
      <g
         id="g5258"
         transform="matrix(-0.34055,0,0,0.34055,61.51,786.1521)">
        <path
           inkscape:connector-curvature="0"
           id="path5260"
           style="fill:#000000;fill-opacity:1;fill-rule:evenodd;stroke:#000000;stroke-width:0.5;stroke-linecap:butt;stroke-linejoin:miter;stroke-miterlimit:4;stroke-opacity:1;stroke-dasharray:none"
           d="m -82.18,-36.988 2,-2 -7,2 7,2 -2,-2 z" />
      </g>
      <g
         id="g5262"
         transform="matrix(0.34055,0,0,-0.34055,61.51,786.1521)">
        <path
           inkscape:connector-curvature="0"
           id="path5264"
           style="fill:none;stroke:#000000;stroke-width:2;stroke-linecap:butt;stroke-linejoin:miter;stroke-miterlimit:4;stroke-opacity:1;stroke-dasharray:none"
           d="m 128.578,36.988 c 0,11.047 -8.953,20 -20,20 -11.043,0 -20,-8.953 -20,-20 0,-11.043 8.957,-20 20,-20 11.047,0 20,8.957 20,20 z" />
      </g>
      <g
         id="g5266"
         transform="matrix(0.34055,0,0,-0.34055,61.51,786.1521)">
        <path
           inkscape:connector-curvature="0"
           id="path5268"
           style="fill:none;stroke:#000000;stroke-width:2;stroke-linecap:butt;stroke-linejoin:miter;stroke-miterlimit:4;stroke-opacity:1;stroke-dasharray:none"
           d="m 128.578,36.988 128,0" />
      </g>
      <g
         id="g5270"
         transform="matrix(-0.34055,0,0,0.34055,61.51,786.1521)">
        <path
           inkscape:connector-curvature="0"
           id="path5272"
           style="fill:#000000;fill-opacity:1;fill-rule:evenodd;stroke:#000000;stroke-width:0.5;stroke-linecap:butt;stroke-linejoin:miter;stroke-miterlimit:4;stroke-opacity:1;stroke-dasharray:none"
           d="m -254.18,-36.988 2,-2 -7,2 7,2 -2,-2 z" />
      </g>
      <g
         id="g5274"
         transform="matrix(0.34055,0,0,-0.34055,61.51,786.1521)">
        <path
           inkscape:connector-curvature="0"
           id="path5276"
           style="fill:none;stroke:#000000;stroke-width:2;stroke-linecap:butt;stroke-linejoin:miter;stroke-miterlimit:4;stroke-opacity:1;stroke-dasharray:none"
           d="m 260.578,164.988 -152,0 0,-104" />
      </g>
      <g
         id="g5278"
         transform="matrix(0,-0.34055,-0.34055,0,61.51,786.1521)">
        <path
           inkscape:connector-curvature="0"
           id="path5280"
           style="fill:#000000;fill-opacity:1;fill-rule:evenodd;stroke:#000000;stroke-width:0.5;stroke-linecap:butt;stroke-linejoin:miter;stroke-miterlimit:4;stroke-opacity:1;stroke-dasharray:none"
           d="m 63.391,-108.578 2,-2 -7,2 7,2 -2,-2 z" />
      </g>
      <g
         id="g5282"
         transform="matrix(0.34055,0,0,-0.34055,61.51,786.1521)">
        <path
           inkscape:connector-curvature="0"
           id="path5284"
           style="fill:none;stroke:#000000;stroke-width:2;stroke-linecap:butt;stroke-linejoin:miter;stroke-miterlimit:4;stroke-opacity:1;stroke-dasharray:none"
           d="m 260.578,0.988 176,0 0,72 -176,0 0,-36 0,-36 z" />
      </g>
      <g
         id="g5286"
         transform="matrix(0.34055,0,0,-0.34055,61.51,786.1521)">
        <path
           inkscape:connector-curvature="0"
           id="path5288"
           style="fill:none;stroke:#000000;stroke-width:2;stroke-linecap:butt;stroke-linejoin:miter;stroke-miterlimit:4;stroke-opacity:1;stroke-dasharray:none"
           d="m 436.578,36.988 108,0 0,104" />
      </g>
      <g
         id="g5290"
         transform="matrix(0,0.34055,0.34055,0,61.51,786.1521)">
        <path
           inkscape:connector-curvature="0"
           id="path5292"
           style="fill:#000000;fill-opacity:1;fill-rule:evenodd;stroke:#000000;stroke-width:0.5;stroke-linecap:butt;stroke-linejoin:miter;stroke-miterlimit:4;stroke-opacity:1;stroke-dasharray:none"
           d="m -138.59,544.578 2,-2 -7,2 7,2 -2,-2 z" />
      </g>
      <g
         id="g5294"
         transform="matrix(0.34055,0,0,-0.34055,61.51,786.1521)">
        <path
           inkscape:connector-curvature="0"
           id="path5296"
           style="fill:none;stroke:#000000;stroke-width:2;stroke-linecap:butt;stroke-linejoin:miter;stroke-miterlimit:4;stroke-opacity:1;stroke-dasharray:none"
           d="m 524.578,164.988 -84,0" />
      </g>
      <g
         id="g5298"
         transform="matrix(0.34055,0,0,-0.34055,61.51,786.1521)">
        <path
           inkscape:connector-curvature="0"
           id="path5300"
           style="fill:#000000;fill-opacity:1;fill-rule:evenodd;stroke:#000000;stroke-width:0.5;stroke-linecap:butt;stroke-linejoin:miter;stroke-miterlimit:4;stroke-opacity:1;stroke-dasharray:none"
           d="m 442.98,164.988 2,-2 -7,2 7,2 -2,-2 z" />
      </g>
      <g
         id="g5302"
         transform="matrix(0.34055,0,0,-0.34055,61.51,786.1521)">
        <path
           inkscape:connector-curvature="0"
           id="path5304"
           style="fill:none;stroke:#000000;stroke-width:2;stroke-linecap:butt;stroke-linejoin:miter;stroke-miterlimit:4;stroke-opacity:1;stroke-dasharray:none"
           d="m 624.578,164.988 -56,0" />
      </g>
      <g
         id="g5306"
         transform="matrix(-0.34055,0,0,0.34055,61.51,786.1521)">
        <path
           inkscape:connector-curvature="0"
           id="path5308"
           style="fill:#000000;fill-opacity:1;fill-rule:evenodd;stroke:#000000;stroke-width:1;stroke-linecap:butt;stroke-linejoin:miter;stroke-miterlimit:4;stroke-opacity:1;stroke-dasharray:none"
           d="m -620.66,-164.988 c 0,2.207 -1.793,4 -4,4 -2.207,0 -4,-1.793 -4,-4 0,-2.211 1.793,-4 4,-4 2.207,0 4,1.789 4,4 z" />
      </g>
      <g
         id="g5310"
         transform="matrix(0.34055,0,0,-0.34055,61.51,786.1521)">
        <path
           inkscape:connector-curvature="0"
           id="path5312"
           style="fill:#000000;fill-opacity:1;fill-rule:evenodd;stroke:#000000;stroke-width:0.5;stroke-linecap:butt;stroke-linejoin:miter;stroke-miterlimit:4;stroke-opacity:1;stroke-dasharray:none"
           d="m 570.98,164.988 2,-2 -7,2 7,2 -2,-2 z" />
      </g>
      <g
         id="g5314"
         transform="matrix(0.34055,0,0,-0.34055,61.51,786.1521)">
        <path
           inkscape:connector-curvature="0"
           id="path5316"
           style="fill:none;stroke:#000000;stroke-width:2;stroke-linecap:butt;stroke-linejoin:miter;stroke-miterlimit:4;stroke-opacity:1;stroke-dasharray:none"
           d="m 104.5,36.988 8,0" />
      </g>
      <g
         id="g5318"
         transform="matrix(0.34055,0,0,-0.34055,61.51,786.1521)">
        <path
           inkscape:connector-curvature="0"
           id="path5320"
           style="fill:none;stroke:#000000;stroke-width:2;stroke-linecap:butt;stroke-linejoin:miter;stroke-miterlimit:4;stroke-opacity:1;stroke-dasharray:none"
           d="m 108.5,32.988 0,8" />
      </g>
      <g
         id="g5322"
         transform="matrix(0.34055,0,0,-0.34055,61.51,786.1521)">
        <path
           inkscape:connector-curvature="0"
           id="path5324"
           style="fill:none;stroke:#000000;stroke-width:2;stroke-linecap:butt;stroke-linejoin:miter;stroke-miterlimit:4;stroke-opacity:1;stroke-dasharray:none"
           d="m 260.578,128.988 176,0 0,72 -176,0 0,-36 0,-36 z" />
      </g>
      <g
         id="g5326"
         transform="matrix(0.34055,0,0,-0.34055,61.51,786.1521)">
        <path
           inkscape:connector-curvature="0"
           id="path5328"
           style="fill:none;stroke:#000000;stroke-width:2;stroke-linecap:butt;stroke-linejoin:miter;stroke-miterlimit:4;stroke-opacity:1;stroke-dasharray:none"
           d="m 564.578,164.988 c 0,11.047 -8.953,20 -20,20 -11.043,0 -20,-8.953 -20,-20 0,-11.043 8.957,-20 20,-20 11.047,0 20,8.957 20,20 z" />
      </g>
      <g
         id="g5330"
         transform="matrix(0.34055,0,0,-0.34055,61.51,786.1521)">
        <path
           inkscape:connector-curvature="0"
           id="path5332"
           style="fill:none;stroke:#000000;stroke-width:2;stroke-linecap:butt;stroke-linejoin:miter;stroke-miterlimit:4;stroke-opacity:1;stroke-dasharray:none"
           d="m 540.578,164.988 8,0" />
      </g>
      <g
         id="text6243"
         style="font-size:12px;font-style:normal;font-variant:normal;font-weight:normal;font-stretch:normal;line-height:125%;letter-spacing:0px;word-spacing:0px;fill:#000000;fill-opacity:1;stroke:none;font-family:Liberation Serif;-inkscape-font-specification:Liberation Serif"
         transform="matrix(0.8,0,0,-0.8,26.907302,798.58317)">
        <path
           inkscape:connector-curvature="0"
           id="path6276"
           style="font-size:10px;font-weight:bold;-inkscape-font-specification:Liberation Serif Bold"
           d="m 176.71194,31.508774 0.42969,0 0.21973,1.049804 c 0.0684,0.07813 0.15462,0.151368 0.25879,0.219727 0.10416,0.0651 0.22135,0.123699 0.35156,0.175781 0.13021,0.05208 0.26855,0.09277 0.41504,0.122071 0.14974,0.0293 0.3011,0.04395 0.4541,0.04395 0.2539,0 0.47038,-0.02767 0.64941,-0.08301 0.17904,-0.05859 0.32389,-0.138346 0.43458,-0.239258 0.11067,-0.10091 0.19042,-0.221353 0.23925,-0.361328 0.0521,-0.143228 0.0781,-0.299478 0.0781,-0.46875 -1e-5,-0.195311 -0.0505,-0.356443 -0.15137,-0.483398 -0.0977,-0.126951 -0.2295,-0.236001 -0.39551,-0.327149 -0.16276,-0.09114 -0.34831,-0.170896 -0.55664,-0.239258 -0.20833,-0.07161 -0.42318,-0.146481 -0.64453,-0.224609 -0.2181,-0.07812 -0.43132,-0.16764 -0.63965,-0.268555 -0.20833,-0.100908 -0.39551,-0.227861 -0.56152,-0.380859 -0.16276,-0.156246 -0.2946,-0.345048 -0.39551,-0.566406 -0.0977,-0.22135 -0.14648,-0.49316 -0.14648,-0.81543 0,-0.576166 0.19531,-1.013991 0.58593,-1.313476 0.39388,-0.302728 0.96843,-0.454095 1.72364,-0.454102 0.1595,7e-6 0.32063,0.0065 0.4834,0.01953 0.16601,0.0098 0.32714,0.02442 0.48339,0.04395 0.15625,0.01954 0.30599,0.04232 0.44922,0.06836 0.14323,0.02605 0.27669,0.05209 0.40039,0.07813 l 0,1.557617 -0.43457,0 -0.21972,-0.898437 c -0.14324,-0.104161 -0.30762,-0.190424 -0.49317,-0.258789 -0.18555,-0.06835 -0.40853,-0.102533 -0.66894,-0.10254 -0.22136,7e-6 -0.41179,0.02279 -0.57129,0.06836 -0.15625,0.04232 -0.28483,0.102545 -0.38574,0.180664 -0.10092,0.07813 -0.17416,0.172532 -0.21973,0.283203 -0.0456,0.110683 -0.0684,0.23438 -0.0684,0.371094 0,0.175786 0.0505,0.32227 0.15137,0.439453 0.10091,0.117192 0.23274,0.218103 0.39551,0.302734 0.16275,0.08464 0.3483,0.161137 0.55664,0.229492 0.21158,0.06836 0.42642,0.143234 0.64453,0.22461 0.22135,0.07813 0.43619,0.169275 0.64453,0.273437 0.21158,0.100915 0.39876,0.229496 0.56152,0.385743 0.16276,0.152998 0.29459,0.340172 0.39551,0.561523 0.10091,0.221357 0.15136,0.489911 0.15137,0.805664 -1e-5,0.319012 -0.0456,0.607098 -0.13672,0.864258 -0.0911,0.257162 -0.23601,0.476889 -0.43457,0.65918 -0.19857,0.179036 -0.45248,0.317383 -0.76172,0.415039 -0.30925,0.09766 -0.6836,0.146484 -1.12305,0.146484 -0.21159,0 -0.42155,-0.0098 -0.62988,-0.0293 -0.20834,-0.01953 -0.4069,-0.04557 -0.5957,-0.07813 -0.18555,-0.03255 -0.35808,-0.06999 -0.51758,-0.112305 -0.15951,-0.04232 -0.2946,-0.08463 -0.40528,-0.126953 l 0,-1.757812" />
        <path
           inkscape:connector-curvature="0"
           id="path6278"
           style="font-size:10px;font-weight:bold;-inkscape-font-specification:Liberation Serif Bold"
           d="m 184.00198,33.657211 -1.83593,-4.291992 -0.32227,-0.117187 0,-0.322266 2.34863,0 0,0.322266 -0.54687,0.126953 1.0791,2.539062 0.96191,-2.548828 -0.53711,-0.117187 0,-0.322266 1.49903,0 0,0.322266 -0.33203,0.09766 -1.81153,4.458008 c -0.10417,0.266926 -0.20996,0.514322 -0.31738,0.742187 -0.10742,0.227864 -0.22787,0.424803 -0.36133,0.59082 -0.13021,0.16927 -0.27995,0.301105 -0.44922,0.395508 -0.16927,0.0944 -0.36621,0.1416 -0.59082,0.141602 -0.0911,-2e-6 -0.1709,-0.0016 -0.23925,-0.0049 -0.0651,-0.0033 -0.12859,-0.0098 -0.19043,-0.01953 -0.0586,-0.0065 -0.11882,-0.01628 -0.18067,-0.0293 -0.0586,-0.0098 -0.1237,-0.02279 -0.19531,-0.03906 l 0,-1.18164 0.29297,0 0.20996,0.615234 c 0.0456,0.03581 0.096,0.06347 0.15137,0.08301 0.0586,0.01953 0.12858,0.02929 0.20996,0.0293 0.13346,-2e-6 0.24902,-0.03418 0.34668,-0.102539 0.10091,-0.06836 0.19205,-0.161134 0.27343,-0.278321 0.0814,-0.113933 0.15625,-0.249024 0.22461,-0.405273 0.0716,-0.152995 0.14649,-0.315756 0.22461,-0.488281 l 0.0879,-0.195313" />
        <path
           inkscape:connector-curvature="0"
           id="path6280"
           style="font-size:10px;font-weight:bold;-inkscape-font-specification:Liberation Serif Bold"
           d="m 190.39359,32.060532 c -1e-5,0.240886 -0.0374,0.457357 -0.11231,0.649414 -0.0716,0.192058 -0.18392,0.354818 -0.33691,0.488281 -0.14975,0.133464 -0.34018,0.236003 -0.57129,0.307617 -0.23112,0.07161 -0.50456,0.107422 -0.82032,0.107422 -0.15625,0 -0.31412,-0.0098 -0.47363,-0.0293 -0.1595,-0.01953 -0.30762,-0.04232 -0.44433,-0.06836 -0.13672,-0.0293 -0.25717,-0.05697 -0.36133,-0.08301 -0.10091,-0.0293 -0.17253,-0.05208 -0.21485,-0.06836 l 0,-1.25 0.32227,0 0.18555,0.644531 c 0.0488,0.04883 0.10905,0.09766 0.18066,0.146484 0.0716,0.04557 0.15137,0.08789 0.23926,0.126953 0.0879,0.03906 0.18229,0.06999 0.2832,0.09277 0.10091,0.02279 0.20508,0.03418 0.3125,0.03418 0.2832,10e-7 0.49316,-0.06022 0.62988,-0.180664 0.13998,-0.123697 0.20996,-0.279947 0.20997,-0.46875 -1e-5,-0.104165 -0.0212,-0.193683 -0.0635,-0.268554 -0.0391,-0.07487 -0.10254,-0.1416 -0.19043,-0.200196 -0.0879,-0.05859 -0.2002,-0.11393 -0.33691,-0.166015 -0.13347,-0.05208 -0.2946,-0.10742 -0.4834,-0.166016 -0.15625,-0.04883 -0.3125,-0.109047 -0.46875,-0.180664 -0.15625,-0.07487 -0.29623,-0.170896 -0.41993,-0.288086 -0.12044,-0.117185 -0.21972,-0.262042 -0.29785,-0.43457 -0.0749,-0.172523 -0.1123,-0.384112 -0.1123,-0.634766 0,-0.22135 0.0423,-0.416663 0.12695,-0.585937 0.0879,-0.169267 0.20671,-0.310868 0.35645,-0.424805 0.14974,-0.117183 0.32552,-0.205074 0.52734,-0.263672 0.20182,-0.06184 0.41829,-0.09277 0.64941,-0.09277 0.22787,4e-6 0.45573,0.01465 0.6836,0.04395 0.23112,0.0293 0.4541,0.06185 0.66894,0.09766 l 0,1.176758 -0.32226,0 -0.15625,-0.537109 c -0.0423,-0.04231 -0.096,-0.083 -0.16113,-0.122071 -0.0651,-0.03906 -0.13835,-0.07324 -0.21973,-0.102539 -0.0781,-0.02929 -0.16114,-0.05208 -0.24902,-0.06836 -0.0879,-0.01953 -0.17253,-0.02929 -0.25391,-0.0293 -0.23438,4e-6 -0.40853,0.04883 -0.52246,0.146484 -0.11068,0.0944 -0.16602,0.224614 -0.16602,0.390625 0,0.107426 0.0228,0.198572 0.0684,0.273438 0.0488,0.07487 0.11882,0.141605 0.20996,0.200195 0.0944,0.0586 0.20671,0.112308 0.33692,0.161133 0.13346,0.04883 0.28645,0.09929 0.45898,0.151367 0.17904,0.05534 0.34831,0.122073 0.50781,0.200196 0.15951,0.07487 0.29785,0.170901 0.41504,0.288085 0.12044,0.113935 0.21484,0.250654 0.28321,0.410157 0.0683,0.159507 0.10253,0.351564 0.10254,0.576172" />
        <path
           inkscape:connector-curvature="0"
           id="path6282"
           style="font-size:10px;font-weight:bold;-inkscape-font-specification:Liberation Serif Bold"
           d="m 192.77151,33.613266 c -0.24414,0 -0.4541,-0.0293 -0.62988,-0.08789 -0.17253,-0.05859 -0.31413,-0.138346 -0.4248,-0.239257 -0.11068,-0.104167 -0.19206,-0.226237 -0.24414,-0.366211 -0.0521,-0.143229 -0.0781,-0.297851 -0.0781,-0.463868 l 0,-3.022461 -0.60058,0 0,-0.317382 0.708,-0.19043 0.57129,-1.040039 0.73242,0 0,1.040039 0.9668,0 0,0.507812 -0.9668,0 0,2.934571 c 0,0.211589 0.0439,0.371094 0.13184,0.478515 0.0879,0.107423 0.20345,0.161134 0.34668,0.161133 0.11067,10e-7 0.21972,-0.0081 0.32715,-0.02441 0.11067,-0.01628 0.21321,-0.03418 0.30762,-0.05371 l 0,0.415039 c -0.0456,0.03255 -0.11231,0.06511 -0.2002,0.09766 -0.0879,0.03255 -0.18555,0.06022 -0.29297,0.08301 -0.10417,0.02604 -0.21484,0.0472 -0.33203,0.06348 -0.11393,0.01628 -0.22136,0.02441 -0.32227,0.02441" />
        <path
           inkscape:connector-curvature="0"
           id="path6284"
           style="font-size:10px;font-weight:bold;-inkscape-font-specification:Liberation Serif Bold"
           d="m 196.3848,28.813461 c 0.27018,5e-6 0.51432,0.03256 0.73242,0.09766 0.21809,0.06511 0.40364,0.177413 0.55664,0.336914 0.15299,0.156254 0.27018,0.366214 0.35156,0.629882 0.0846,0.26042 0.12695,0.587569 0.12695,0.981446 l 0,0.40039 -2.40722,0 0,0.07813 c 0,0.218101 0.008,0.428062 0.0244,0.629883 0.0195,0.198569 0.0684,0.375978 0.14649,0.532227 0.0814,0.152995 0.20344,0.275066 0.36621,0.366211 0.16601,0.09115 0.39387,0.136719 0.68359,0.136718 0.19205,1e-6 0.37923,-0.01465 0.56152,-0.04394 0.18229,-0.0293 0.35645,-0.06185 0.52247,-0.09766 l 0,0.375976 c -0.0749,0.04557 -0.16928,0.09115 -0.28321,0.136719 -0.11393,0.04557 -0.23926,0.08626 -0.37597,0.12207 -0.13347,0.03255 -0.27507,0.05859 -0.42481,0.07813 -0.14974,0.02279 -0.29785,0.03418 -0.44434,0.03418 -0.39388,0 -0.73079,-0.05208 -1.01074,-0.15625 -0.27995,-0.104166 -0.50944,-0.258789 -0.68847,-0.463867 -0.17579,-0.205077 -0.30437,-0.457356 -0.38575,-0.756836 -0.0814,-0.299478 -0.12207,-0.644529 -0.12207,-1.035156 0,-0.800778 0.1709,-1.398108 0.5127,-1.791992 0.34505,-0.393876 0.86426,-0.590816 1.55762,-0.590821 m -0.0537,0.493164 c -0.11719,5e-6 -0.21322,0.03418 -0.28809,0.102539 -0.0749,0.06836 -0.13509,0.164392 -0.18066,0.288086 -0.0423,0.123702 -0.0716,0.275069 -0.0879,0.454102 -0.0163,0.17904 -0.0244,0.377607 -0.0244,0.595703 l 1.06445,0 c 0,-0.218096 -0.005,-0.416663 -0.0146,-0.595703 -0.007,-0.179033 -0.026,-0.3304 -0.0586,-0.454102 -0.0293,-0.123694 -0.0765,-0.219722 -0.1416,-0.288086 -0.0651,-0.06836 -0.15462,-0.102534 -0.26855,-0.102539" />
        <path
           inkscape:connector-curvature="0"
           id="path6286"
           style="font-size:10px;font-weight:bold;-inkscape-font-specification:Liberation Serif Bold"
           d="m 200.52542,29.326157 c 0.10091,-0.05208 0.21159,-0.109046 0.33203,-0.170899 0.12044,-0.06184 0.2474,-0.11881 0.38086,-0.170898 0.13346,-0.05208 0.27018,-0.0944 0.41016,-0.126953 0.14322,-0.0358 0.28808,-0.05371 0.43457,-0.05371 0.2539,4e-6 0.47525,0.04721 0.66406,0.141601 0.1888,0.09115 0.33203,0.242518 0.42969,0.454102 0.10416,-0.06184 0.22298,-0.126949 0.35644,-0.195313 0.13672,-0.07161 0.27832,-0.136714 0.42481,-0.195312 0.14973,-0.05859 0.30273,-0.107417 0.45898,-0.146485 0.15625,-0.03906 0.30599,-0.05859 0.44922,-0.05859 0.18554,4e-6 0.35481,0.02442 0.50781,0.07324 0.15299,0.04883 0.2832,0.126958 0.39063,0.234375 0.11067,0.107426 0.1953,0.2474 0.25391,0.419922 0.0586,0.17253 0.0879,0.380863 0.0879,0.625 l 0,2.919922 0.45898,0.117187 0,0.322266 -2.28027,0 0,-0.322266 0.41015,-0.117187 0,-2.729493 c 0,-0.273434 -0.0537,-0.48665 -0.16113,-0.639648 -0.10417,-0.152991 -0.26368,-0.229488 -0.47852,-0.229492 -0.11719,4e-6 -0.24577,0.01954 -0.38574,0.05859 -0.13672,0.03581 -0.26856,0.08464 -0.39551,0.146484 0.0163,0.06836 0.0277,0.143233 0.0342,0.224609 0.01,0.07813 0.0147,0.161137 0.0147,0.249024 l 0,2.919922 0.45899,0.117187 0,0.322266 -2.28028,0 0,-0.322266 0.41016,-0.117187 0,-2.729493 c 0,-0.273434 -0.0537,-0.48665 -0.16113,-0.639648 -0.10417,-0.152991 -0.26368,-0.229488 -0.47852,-0.229492 -0.12044,4e-6 -0.24414,0.01791 -0.37109,0.05371 -0.1237,0.03581 -0.24577,0.08138 -0.36621,0.136718 l 0,3.408204 0.41992,0.117187 0,0.322266 -2.28027,0 0,-0.322266 0.44921,-0.117187 0,-3.710938 -0.44921,-0.117187 0,-0.322266 1.78222,0 0.0684,0.400391" />
      </g>
      <text
         xml:space="preserve"
         style="font-size:8px;font-style:normal;font-variant:normal;font-weight:bold;font-stretch:normal;text-indent:0;text-align:start;text-decoration:none;line-height:125%;letter-spacing:0px;word-spacing:0px;text-transform:none;direction:ltr;block-progression:tb;writing-mode:lr-tb;text-anchor:start;baseline-shift:baseline;color:#000000;fill:#000000;fill-opacity:1;fill-rule:nonzero;stroke:none;marker:none;visibility:visible;display:inline;overflow:visible;enable-background:accumulate;font-family:Liberation Serif;-inkscape-font-specification:Liberation Serif Bold"
         x="162.18698"
         y="-727.22913"
         id="text6247"
         sodipodi:linespacing="125%"
         transform="scale(1,-1)"><tspan
           sodipodi:role="line"
           id="tspan6249"
           x="162.18698"
           y="-727.22913"
           style="font-size:8px;font-style:normal;font-variant:normal;font-weight:bold;font-stretch:normal;text-indent:0;text-align:start;text-decoration:none;line-height:125%;letter-spacing:0px;word-spacing:0px;text-transform:none;direction:ltr;block-progression:tb;writing-mode:lr-tb;text-anchor:start;baseline-shift:baseline;color:#000000;fill:#000000;fill-opacity:1;fill-rule:nonzero;stroke:none;marker:none;visibility:visible;display:inline;overflow:visible;enable-background:accumulate;font-family:Liberation Serif;-inkscape-font-specification:Liberation Serif Bold">Controller</tspan></text>
      <text
         transform="scale(1,-1)"
         sodipodi:linespacing="125%"
         id="text6251"
         y="-778.18616"
         x="222.93962"
         style="font-size:8px;font-style:normal;font-variant:normal;font-weight:bold;font-stretch:normal;text-indent:0;text-align:start;text-decoration:none;line-height:125%;letter-spacing:0px;word-spacing:0px;text-transform:none;direction:ltr;block-progression:tb;writing-mode:lr-tb;text-anchor:start;baseline-shift:baseline;color:#000000;fill:#000000;fill-opacity:1;fill-rule:nonzero;stroke:none;marker:none;visibility:visible;display:inline;overflow:visible;enable-background:accumulate;font-family:Liberation Serif;-inkscape-font-specification:Liberation Serif Bold"
         xml:space="preserve"><tspan
           style="font-weight:normal;-inkscape-font-specification:Liberation Serif"
           y="-778.18616"
           x="222.93962"
           id="tspan6253"
           sodipodi:role="line">x(t)</tspan></text>
      <text
         xml:space="preserve"
         style="font-size:8px;font-style:normal;font-variant:normal;font-weight:bold;font-stretch:normal;text-indent:0;text-align:start;text-decoration:none;line-height:125%;letter-spacing:0px;word-spacing:0px;text-transform:none;direction:ltr;block-progression:tb;writing-mode:lr-tb;text-anchor:start;baseline-shift:baseline;color:#000000;fill:#000000;fill-opacity:1;fill-rule:nonzero;stroke:none;marker:none;visibility:visible;display:inline;overflow:visible;enable-background:accumulate;font-family:Liberation Serif;-inkscape-font-specification:Liberation Serif Bold"
         x="118.71374"
         y="-734.35803"
         id="text6255"
         sodipodi:linespacing="125%"
         transform="scale(1,-1)"><tspan
           sodipodi:role="line"
           id="tspan6257"
           x="118.71374"
           y="-734.35803"
           style="font-weight:normal;-inkscape-font-specification:Liberation Serif">u(t)</tspan></text>
      <text
         transform="scale(1,-1)"
         sodipodi:linespacing="125%"
         id="text6259"
         y="-778.18616"
         x="110.98928"
         style="font-size:8px;font-style:normal;font-variant:normal;font-weight:bold;font-stretch:normal;text-indent:0;text-align:start;text-decoration:none;line-height:125%;letter-spacing:0px;word-spacing:0px;text-transform:none;direction:ltr;block-progression:tb;writing-mode:lr-tb;text-anchor:start;baseline-shift:baseline;color:#000000;fill:#000000;fill-opacity:1;fill-rule:nonzero;stroke:none;marker:none;visibility:visible;display:inline;overflow:visible;enable-background:accumulate;font-family:Liberation Serif;-inkscape-font-specification:Liberation Serif Bold"
         xml:space="preserve"><tspan
           style="font-weight:normal;-inkscape-font-specification:Liberation Serif"
           y="-778.18616"
           x="110.98928"
           id="tspan6261"
           sodipodi:role="line">z(t) + u(t)</tspan></text>
      <text
         xml:space="preserve"
         style="font-size:8px;font-style:normal;font-variant:normal;font-weight:bold;font-stretch:normal;text-indent:0;text-align:start;text-decoration:none;line-height:125%;letter-spacing:0px;word-spacing:0px;text-transform:none;direction:ltr;block-progression:tb;writing-mode:lr-tb;text-anchor:start;baseline-shift:baseline;color:#000000;fill:#000000;fill-opacity:1;fill-rule:nonzero;stroke:none;marker:none;visibility:visible;display:inline;overflow:visible;enable-background:accumulate;font-family:Liberation Serif;-inkscape-font-specification:Liberation Serif Bold"
         x="71.208618"
         y="-778.18616"
         id="text6263"
         sodipodi:linespacing="125%"
         transform="scale(1,-1)"><tspan
           sodipodi:role="line"
           id="tspan6265"
           x="71.208618"
           y="-778.18616"
           style="font-weight:normal;-inkscape-font-specification:Liberation Serif">z(t)</tspan></text>
      <text
         xml:space="preserve"
         style="font-size:8px;font-style:normal;font-variant:normal;font-weight:bold;font-stretch:normal;text-indent:0;text-align:start;text-decoration:none;line-height:125%;letter-spacing:0px;word-spacing:0px;text-transform:none;direction:ltr;block-progression:tb;writing-mode:lr-tb;text-anchor:start;baseline-shift:baseline;color:#000000;fill:#000000;fill-opacity:1;fill-rule:nonzero;stroke:none;marker:none;visibility:visible;display:inline;overflow:visible;enable-background:accumulate;font-family:Liberation Serif;-inkscape-font-specification:Liberation Serif Bold"
         x="220.32069"
         y="-734.35803"
         id="text6267"
         sodipodi:linespacing="125%"
         transform="scale(1,-1)"><tspan
           sodipodi:role="line"
           id="tspan6269"
           x="220.32069"
           y="-734.35803"
           style="font-weight:normal;-inkscape-font-specification:Liberation Serif">e(t)</tspan></text>
      <text
         transform="scale(1,-1)"
         sodipodi:linespacing="125%"
         id="text6271"
         y="-734.35803"
         x="259.65707"
         style="font-size:8px;font-style:normal;font-variant:normal;font-weight:bold;font-stretch:normal;text-indent:0;text-align:start;text-decoration:none;line-height:125%;letter-spacing:0px;word-spacing:0px;text-transform:none;direction:ltr;block-progression:tb;writing-mode:lr-tb;text-anchor:start;baseline-shift:baseline;color:#000000;fill:#000000;fill-opacity:1;fill-rule:nonzero;stroke:none;marker:none;visibility:visible;display:inline;overflow:visible;enable-background:accumulate;font-family:Liberation Serif;-inkscape-font-specification:Liberation Serif Bold"
         xml:space="preserve"><tspan
           style="font-weight:normal;-inkscape-font-specification:Liberation Serif"
           y="-734.35803"
           x="259.65707"
           id="tspan6273"
           sodipodi:role="line">r(t)</tspan></text>
    </g>
  </g>
</svg>
